<svg width="26" height="26" viewBox="0 0 26 26" fill="none" xmlns="http://www.w3.org/2000/svg">
<g clip-path="url(#clip0_825_220)">
<path d="M13.0252 0.780334C6.33572 0.780334 0.915802 6.20026 0.915802 12.8897C0.915802 19.5792 6.33572 24.9991 13.0252 24.9991C19.7146 24.9991 25.1346 19.5792 25.1346 12.8897C25.1346 6.20026 19.7146 0.780334 13.0252 0.780334ZM18.9724 9.07623L16.9851 18.4415C16.8387 19.1055 16.4431 19.2667 15.8914 18.9542L12.864 16.7227L11.4041 18.129C11.243 18.2901 11.1062 18.4268 10.7937 18.4268L11.0086 15.3458L16.6189 10.2774C16.8631 10.0626 16.5652 9.94049 16.243 10.1553L9.30936 14.5206L6.32108 13.588C5.67166 13.3829 5.65701 12.9385 6.45779 12.626L18.1326 8.12408C18.6746 7.92877 19.1482 8.25592 18.9724 9.07623Z" fill="black"/>
</g>
<defs>
<clipPath id="clip0_825_220">
<rect width="25" height="25" fill="white" transform="translate(0.525177 0.389709)"/>
</clipPath>
</defs>
</svg>
