<?xml version="1.0" encoding="UTF-8"?>
<!DOCTYPE svg PUBLIC "-//W3C//DTD SVG 1.1//EN" "http://www.w3.org/Graphics/SVG/1.1/DTD/svg11.dtd">
<svg xmlns="http://www.w3.org/2000/svg" version="1.1" width="512px" height="512px" style="shape-rendering:geometricPrecision; text-rendering:geometricPrecision; image-rendering:optimizeQuality; fill-rule:evenodd; clip-rule:evenodd" xmlns:xlink="http://www.w3.org/1999/xlink">
<g><path style="opacity:0.975" fill="#000000" d="M 511.5,233.5 C 511.5,248.167 511.5,262.833 511.5,277.5C 507.237,321.787 492.737,362.454 468,399.5C 454.704,410.47 441.704,410.137 429,398.5C 422.084,388.075 421.751,377.409 428,366.5C 463.672,308.781 470.338,247.781 448,183.5C 418.533,112.331 366.033,68.8314 290.5,53C 218.056,42.7032 156.223,63.5365 105,115.5C 55.9438,171.392 39.9438,235.725 57,308.5C 79.5,383 128,431.5 202.5,454C 226.561,460.229 250.894,462.229 275.5,460C 291.165,457.933 306.665,455.1 322,451.5C 337.805,452.638 346.305,461.138 347.5,477C 347.004,485.658 343.338,492.658 336.5,498C 329.784,501.127 322.784,503.461 315.5,505C 303.103,507.62 290.77,509.787 278.5,511.5C 263.5,511.5 248.5,511.5 233.5,511.5C 146.661,501.685 80.4944,459.685 35,385.5C -5.78055,308.758 -9.11388,230.425 25,150.5C 59.8217,78.683 115.655,31.8497 192.5,10C 279.606,-10.3861 357.606,7.61391 426.5,64C 476.255,109.676 504.588,166.176 511.5,233.5 Z"/></g>
<g><path style="opacity:0.992" fill="#000000" d="M 248.5,108.5 C 263.983,106.149 274.483,112.149 280,126.5C 280.667,184.167 280.667,241.833 280,299.5C 274.494,314.009 263.994,319.842 248.5,317C 239.333,314.5 233.5,308.667 231,299.5C 230.333,241.833 230.333,184.167 231,126.5C 233.683,117.318 239.517,111.318 248.5,108.5 Z"/></g>
<g><path style="opacity:0.96" fill="#000000" d="M 248.5,352.5 C 271.647,350.813 282.147,361.48 280,384.5C 274.494,399.009 263.994,404.842 248.5,402C 233.991,396.494 228.158,385.994 231,370.5C 233.683,361.318 239.517,355.318 248.5,352.5 Z"/></g>
</svg>
