<svg viewBox="0 0 130 39" fill="none" xmlns="http://www.w3.org/2000/svg">
<path d="M125.375 39H4.55385C3.34629 38.9972 2.18904 38.5099 1.33553 37.645C0.482009 36.7801 0.00178008 35.608 0 34.3853L0 4.60785C0.00178461 3.38582 0.482229 2.2144 1.33594 1.35057C2.18965 0.486738 3.34691 0.00103144 4.55385 0L125.375 0C127.884 0 130 2.067 130 4.60785V34.3853C130 36.9252 127.884 39 125.375 39Z" fill="#A6A6A6"/>
<path d="M129.068 34.3862C129.068 34.8769 128.972 35.3629 128.787 35.8162C128.601 36.2695 128.329 36.6813 127.986 37.0281C127.643 37.3749 127.236 37.6499 126.788 37.8373C126.34 38.0248 125.86 38.121 125.376 38.1205H4.55375C3.57448 38.1215 2.6349 37.7287 1.94164 37.0284C1.24838 36.3281 0.85821 35.3777 0.856934 34.3862V4.6068C0.858209 3.61484 1.24823 2.66394 1.94135 1.96289C2.63447 1.26183 3.57404 0.867933 4.55375 0.867676H125.375C125.86 0.867676 126.34 0.964398 126.788 1.15232C127.236 1.34024 127.643 1.61568 127.986 1.9629C128.329 2.31012 128.601 2.72233 128.786 3.17597C128.971 3.62962 129.067 4.11582 129.067 4.6068L129.068 34.3862Z" fill="black"/>
<path d="M29.0124 19.2893C28.9845 16.1469 31.5536 14.6181 31.6711 14.5469C30.2161 12.399 27.9608 12.1055 27.1683 12.0821C25.2742 11.8803 23.4368 13.2297 22.4719 13.2297C21.4878 13.2297 20.0019 12.1016 18.4005 12.1348C16.3398 12.167 14.4119 13.375 13.3546 15.2509C11.1725 19.0758 12.7999 24.6967 14.8905 27.7884C15.9363 29.3026 17.1583 30.9932 18.7578 30.9338C20.3226 30.8684 20.9071 29.9237 22.7955 29.9237C24.6665 29.9237 25.2154 30.9338 26.8467 30.8957C28.5261 30.8684 29.5834 29.3747 30.5926 27.8469C31.8011 26.1114 32.2865 24.4022 32.3057 24.3145C32.2662 24.3008 29.0442 23.0558 29.0124 19.2893ZM25.9309 10.0483C26.7725 8.98262 27.3484 7.5328 27.1885 6.06152C25.9704 6.11612 24.447 6.91465 23.5697 7.95692C22.7936 8.87537 22.1002 10.3808 22.2793 11.7965C23.6477 11.8998 25.0527 11.0974 25.9309 10.0483ZM51.6584 30.7163H49.4715L48.2736 26.9051H44.1097L42.9686 30.7163H40.8395L44.9648 17.741H47.5128L51.6584 30.7163ZM47.9125 25.3061L46.8291 21.9179C46.7145 21.5718 46.4998 20.7567 46.183 19.4736H46.1444C45.9523 20.2911 45.7495 21.106 45.5359 21.9179L44.4718 25.3061H47.9125ZM62.2673 25.9232C62.2673 27.5144 61.8427 28.7722 60.9933 29.6955C60.2326 30.5174 59.2879 30.9279 58.1603 30.9279C56.9431 30.9279 56.0687 30.4853 55.5362 29.6H55.4977V34.5286H53.4447V24.4403C53.4447 23.4399 53.4187 22.4132 53.3686 21.3602H55.1742L55.2887 22.8432H55.3273C56.0119 21.7259 57.051 21.1682 58.4453 21.1682C59.5354 21.1682 60.4454 21.604 61.1734 22.4766C61.9033 23.3502 62.2673 24.4988 62.2673 25.9232ZM60.1758 25.9993C60.1758 25.0886 59.9736 24.3379 59.5672 23.747C59.1233 23.1308 58.5272 22.8227 57.7799 22.8227C57.2734 22.8227 56.8131 22.9943 56.4019 23.3327C55.9898 23.6739 55.7201 24.1195 55.594 24.6713C55.5304 24.9287 55.4987 25.1393 55.4987 25.3051V26.8651C55.4987 27.5456 55.7047 28.1199 56.1169 28.5889C56.529 29.0579 57.0644 29.2919 57.7231 29.2919C58.4964 29.2919 59.0982 28.9896 59.5287 28.3871C59.9601 27.7835 60.1758 26.9879 60.1758 25.9993ZM72.8956 25.9232C72.8956 27.5144 72.4709 28.7722 71.6206 29.6955C70.8608 30.5174 69.9161 30.9279 68.7885 30.9279C67.5713 30.9279 66.697 30.4853 66.1654 29.6H66.1269V34.5286H64.0739V24.4403C64.0739 23.4399 64.0479 22.4132 63.9978 21.3602H65.8033L65.9179 22.8432H65.9564C66.6401 21.7259 67.6792 21.1682 69.0745 21.1682C70.1636 21.1682 71.0736 21.604 71.8036 22.4766C72.5306 23.3502 72.8956 24.4988 72.8956 25.9232ZM70.804 25.9993C70.804 25.0886 70.6008 24.3379 70.1944 23.747C69.7505 23.1308 69.1564 22.8227 68.4082 22.8227C67.9035 22.8226 67.415 23.0032 67.0292 23.3327C66.617 23.6739 66.3484 24.1195 66.2222 24.6713C66.1596 24.9287 66.1269 25.1393 66.1269 25.3051V26.8651C66.1269 27.5456 66.333 28.1199 66.7432 28.5889C67.1553 29.0569 67.6908 29.2919 68.3513 29.2919C69.1246 29.2919 69.7265 28.9896 70.1569 28.3871C70.5883 27.7835 70.804 26.9879 70.804 25.9993ZM84.7785 27.0776C84.7785 28.1813 84.4001 29.0793 83.6403 29.7725C82.8054 30.5301 81.6431 30.9084 80.1496 30.9084C78.7706 30.9084 77.6651 30.6393 76.8283 30.1001L77.304 28.3676C78.2053 28.9194 79.1943 29.1963 80.2719 29.1963C81.0451 29.1963 81.647 29.0189 82.0793 28.6659C82.5098 28.313 82.7245 27.8391 82.7245 27.2483C82.7245 26.7218 82.5473 26.2781 82.192 25.9184C81.8386 25.5586 81.2483 25.2242 80.424 24.9151C78.1803 24.0678 77.0594 22.8266 77.0594 21.1945C77.0594 20.1278 77.4523 19.2533 78.239 18.5727C79.0229 17.8912 80.0687 17.5509 81.3764 17.5509C82.5425 17.5509 83.5113 17.7566 84.2845 18.1671L83.7713 19.8617C83.049 19.4639 82.2325 19.265 81.3186 19.265C80.5964 19.265 80.0321 19.4453 79.6276 19.8041C79.4636 19.951 79.3329 20.1321 79.2443 20.3348C79.1557 20.5376 79.1114 20.7573 79.1144 20.979C79.1144 21.4919 79.3099 21.916 79.7027 22.2494C80.0446 22.5575 80.6657 22.891 81.567 23.2508C82.6696 23.7002 83.4795 24.2258 84.0005 24.8283C84.5195 25.4289 84.7785 26.1806 84.7785 27.0776ZM91.5665 22.9202H89.3035V27.4628C89.3035 28.6181 89.7022 29.1953 90.5014 29.1953C90.8683 29.1953 91.1726 29.1632 91.4133 29.0988L91.4702 30.6773C91.0657 30.8304 90.5332 30.9074 89.8736 30.9074C89.0628 30.9074 88.4291 30.6569 87.9717 30.1567C87.5162 29.6555 87.287 28.8151 87.287 27.6344V22.9183H85.9389V21.3583H87.287V19.6452L89.3035 19.029V21.3583H91.5665V22.9202ZM101.777 25.9613C101.777 27.3994 101.37 28.5801 100.56 29.5034C99.7093 30.4541 98.5807 30.9279 97.1738 30.9279C95.8179 30.9279 94.7384 30.4726 93.9334 29.5619C93.1284 28.6513 92.7259 27.5018 92.7259 26.1163C92.7259 24.6665 93.1399 23.4789 93.971 22.5556C94.8001 21.6313 95.919 21.1691 97.3259 21.1691C98.6818 21.1691 99.7728 21.6245 100.596 22.5361C101.384 23.4204 101.777 24.5621 101.777 25.9613ZM99.6467 26.0285C99.6467 25.1657 99.4647 24.4256 99.0959 23.8085C98.6654 23.0616 98.0501 22.6892 97.2527 22.6892C96.4275 22.6892 95.8006 23.0626 95.3702 23.8085C95.0013 24.4266 94.8193 25.1783 94.8193 26.0675C94.8193 26.9304 95.0013 27.6704 95.3702 28.2866C95.8141 29.0335 96.4342 29.4059 97.2345 29.4059C98.0183 29.4059 98.6336 29.0257 99.0776 28.2671C99.456 27.6383 99.6467 26.8904 99.6467 26.0285ZM108.45 23.1884C108.237 23.1493 108.02 23.13 107.803 23.1308C107.081 23.1308 106.522 23.4068 106.129 23.9596C105.787 24.4471 105.616 25.0633 105.616 25.8072V30.7163H103.564L103.583 24.3067C103.583 23.2283 103.557 22.2465 103.506 21.3612H105.294L105.37 23.1513H105.426C105.643 22.5361 105.985 22.0408 106.453 21.6693C106.881 21.3447 107.402 21.1689 107.937 21.1682C108.127 21.1682 108.298 21.1818 108.45 21.2062V23.1884ZM117.632 25.5956C117.637 25.9116 117.612 26.2274 117.557 26.5385H111.398C111.422 27.4628 111.719 28.1696 112.291 28.6571C112.81 29.093 113.482 29.3114 114.306 29.3114C115.218 29.3114 116.05 29.1641 116.798 28.8687L117.12 30.3117C116.245 30.6978 115.213 30.8899 114.022 30.8899C112.589 30.8899 111.464 30.4628 110.646 29.6097C109.829 28.7566 109.42 27.611 109.42 26.1738C109.42 24.763 109.8 23.5881 110.562 22.6511C111.359 21.6508 112.437 21.1506 113.793 21.1506C115.124 21.1506 116.133 21.6508 116.817 22.6511C117.359 23.4458 117.632 24.4286 117.632 25.5956ZM115.674 25.0565C115.688 24.4403 115.554 23.9079 115.276 23.4584C114.92 22.8803 114.374 22.5917 113.639 22.5917C112.968 22.5917 112.422 22.8734 112.005 23.4389C111.663 23.8884 111.46 24.4276 111.398 25.0555H115.674V25.0565ZM41.8159 7.09112C42.0345 6.95852 42.281 6.84737 42.5584 6.75572C42.8747 6.65823 43.2042 6.61183 43.5348 6.61825C44.1386 6.61825 44.6143 6.76352 44.9629 7.0531C45.3115 7.34267 45.4858 7.73365 45.4858 8.22602C45.4858 8.617 45.3693 8.9446 45.1362 9.2098C44.9032 9.475 44.6047 9.65147 44.2436 9.73922V9.7675C44.4429 9.79967 44.6316 9.85427 44.8088 9.93325C44.987 10.0122 45.143 10.1175 45.2759 10.2501C45.4153 10.386 45.5258 10.5493 45.6005 10.7301C45.6752 10.9109 45.7125 11.1052 45.7102 11.3012C45.7102 11.6541 45.6399 11.9505 45.4993 12.1904C45.3587 12.4302 45.1757 12.6252 44.9484 12.7773C44.7222 12.9284 44.4679 13.0376 44.1877 13.103C43.9075 13.1683 43.6273 13.2024 43.347 13.2024C43.0476 13.2024 42.7519 13.1702 42.4592 13.1078C42.1664 13.0454 41.8959 12.9411 41.6465 12.7958L41.8987 12.011C42.0605 12.0929 42.2695 12.1718 42.5247 12.2479C42.7799 12.3239 43.0379 12.361 43.2999 12.361C43.7293 12.361 44.0616 12.2635 44.2946 12.0685C44.4088 11.9739 44.4999 11.8538 44.5607 11.7177C44.6215 11.5815 44.6504 11.433 44.6451 11.2836C44.6528 11.0921 44.6038 10.9027 44.5045 10.7396C44.4118 10.599 44.2865 10.4835 44.1396 10.4032C43.9834 10.319 43.8145 10.2616 43.6398 10.2335C43.4594 10.2023 43.2768 10.1864 43.0938 10.1858H42.673V9.4087H43.0938C43.2864 9.4087 43.4655 9.38432 43.6311 9.33265C43.7958 9.28292 43.9393 9.21175 44.0606 9.1201C44.1819 9.02845 44.2773 8.91925 44.3456 8.79347C44.4146 8.66244 44.4497 8.51587 44.4477 8.3674C44.4477 8.08367 44.3476 7.86137 44.1482 7.7005C43.9489 7.53962 43.6812 7.4587 43.3451 7.4587C43.115 7.4587 42.8839 7.49672 42.6537 7.5718C42.4429 7.64005 42.2367 7.72212 42.0364 7.8175L41.8159 7.09112ZM49.8384 13.0971L49.7642 12.5677H49.7363C49.432 12.9899 48.99 13.2014 48.4103 13.2014C48.2042 13.2014 48.0184 13.1663 47.8499 13.0971C47.6813 13.0279 47.535 12.9333 47.4107 12.8134C47.2859 12.6933 47.1872 12.5482 47.1209 12.3873C47.0514 12.2164 47.0166 12.033 47.0188 11.8481C47.0188 11.2748 47.249 10.8439 47.7102 10.5572C48.1715 10.2706 48.8244 10.1273 49.6718 10.1273V10.0424C49.6718 9.43697 49.3579 9.13472 48.73 9.13472C48.2822 9.13472 47.8874 9.2488 47.5465 9.475L47.3414 8.8042C47.7584 8.53997 48.2774 8.40737 48.8985 8.40737C50.0859 8.40737 50.68 9.04112 50.68 10.3086V12.0012C50.68 12.4741 50.7022 12.8397 50.7455 13.0981H49.8384V13.0971ZM49.6987 10.8088C49.1354 10.8088 48.7156 10.8809 48.4402 11.0262C48.1647 11.1715 48.027 11.4084 48.027 11.736C48.027 11.9759 48.0916 12.1553 48.2216 12.2752C48.357 12.397 48.5336 12.4613 48.7146 12.4546C48.9666 12.4553 49.2097 12.3607 49.3964 12.1894C49.488 12.1053 49.5626 12.004 49.6159 11.891C49.6714 11.7746 49.6997 11.6469 49.6987 11.5176V10.8088ZM55.5468 8.50097V9.3424H53.6594V13.0971H52.6512V8.50097H55.5468ZM61.3188 10.7425C61.3188 11.1081 61.2687 11.4425 61.1696 11.7448C61.0809 12.0276 60.9397 12.2907 60.7536 12.5199C60.5769 12.7358 60.3548 12.909 60.1036 13.0269C59.8523 13.1448 59.5783 13.2044 59.3014 13.2014C58.7034 13.2014 58.2739 12.984 58.012 12.5492H57.9927V14.9701H56.9836V10.0142C56.9814 9.50925 56.9692 9.00442 56.947 8.5H57.8339L57.8907 9.22832H57.9099C58.246 8.68037 58.7564 8.40542 59.442 8.40542C59.7087 8.40542 59.9572 8.46197 60.1844 8.57507C60.4117 8.68915 60.6091 8.84807 60.7776 9.05282C60.9462 9.25757 61.0781 9.50327 61.1744 9.7909C61.2707 10.0785 61.3188 10.3954 61.3188 10.7425ZM60.2923 10.7805C60.2923 10.5533 60.2653 10.3437 60.2124 10.1516C60.1594 9.95957 60.0814 9.79577 59.9793 9.66025C59.8773 9.52472 59.7521 9.41747 59.6057 9.3385C59.4542 9.25844 59.2854 9.21789 59.1146 9.22052C58.9721 9.22052 58.8315 9.2527 58.6938 9.3151C58.5561 9.3775 58.4367 9.4633 58.3346 9.57055C58.2316 9.6778 58.1497 9.80747 58.0871 9.9586C58.0245 10.1097 57.9927 10.2706 57.9927 10.4412V11.2076C57.9927 11.3772 58.0187 11.5352 58.0727 11.6804C58.1256 11.8257 58.1998 11.9515 58.2961 12.0587C58.3924 12.166 58.5079 12.2498 58.6418 12.3093C58.7756 12.3698 58.923 12.399 59.0847 12.399C59.4651 12.399 59.7607 12.2528 59.9726 11.9593C60.1844 11.6658 60.2923 11.2719 60.2923 10.7805ZM66.7384 8.50097L65.5886 11.6882C65.3151 12.4448 65.0484 13.064 64.7903 13.5466C64.5313 14.0292 64.2847 14.3802 64.0479 14.6015C63.6993 14.9165 63.3285 15.1095 62.9356 15.1778L62.693 14.3178C62.9539 14.2486 63.2033 14.1131 63.4402 13.9112C63.6762 13.7094 63.8659 13.4579 64.0103 13.1546C64.0479 13.0909 64.0731 13.0204 64.0845 12.947C64.0753 12.8723 64.0565 12.7992 64.0286 12.7295L62.3839 8.50195H63.4951L64.355 11.0652C64.3993 11.1851 64.4427 11.3207 64.486 11.4718C64.5303 11.6229 64.5765 11.7906 64.6266 11.9729H64.6459C64.6839 11.8463 64.7179 11.7186 64.7479 11.5898C64.7855 11.4357 64.8356 11.2573 64.8972 11.0555L65.6637 8.50195H66.7384V8.50097ZM68.4852 10.411H68.9513C69.2931 10.411 69.5589 10.3486 69.7447 10.2218C69.9306 10.0951 70.025 9.94105 70.025 9.75775C70.0267 9.66782 70.0057 9.57893 69.9639 9.49956C69.9221 9.42019 69.8609 9.35299 69.7862 9.30437C69.6282 9.19127 69.4077 9.13375 69.1275 9.13375C68.9465 9.13375 68.7645 9.16397 68.5825 9.22345C68.406 9.28072 68.2354 9.35517 68.073 9.44575L67.8121 8.7847C68.0562 8.64654 68.3195 8.54629 68.593 8.48732C68.8493 8.43369 69.1104 8.40657 69.3721 8.4064C69.5791 8.4064 69.7861 8.42687 69.9941 8.46782C70.2012 8.50877 70.387 8.578 70.5488 8.6755C70.7106 8.773 70.8445 8.90072 70.9456 9.05867C71.0486 9.21662 71.0996 9.41162 71.0996 9.64562C71.0996 9.7909 71.0717 9.91862 71.0149 10.0288C70.9592 10.1396 70.8834 10.2388 70.7915 10.3213C70.6987 10.4065 70.5935 10.4765 70.4795 10.529C70.3676 10.5815 70.2504 10.6214 70.1299 10.6479V10.6762C70.2782 10.6957 70.4236 10.7337 70.5642 10.7903C70.7039 10.8468 70.829 10.9209 70.9427 11.0126C71.0534 11.1042 71.1439 11.2144 71.2133 11.3431C71.2807 11.4728 71.3144 11.619 71.3144 11.7828C71.3144 12.0539 71.2508 12.281 71.1189 12.4634C70.9884 12.6465 70.8168 12.7955 70.6182 12.8982C70.4081 13.0082 70.1833 13.0864 69.9508 13.1303C69.4417 13.2308 68.9176 13.2245 68.411 13.1117C68.152 13.0573 67.9026 12.9633 67.6715 12.8329L67.9344 12.1611C68.0961 12.2498 68.2801 12.3239 68.489 12.3834C68.698 12.4429 68.9108 12.4731 69.1285 12.4731C69.4703 12.4731 69.7342 12.4058 69.9181 12.2703C70.1001 12.1348 70.1925 11.9661 70.1925 11.7643C70.1925 11.6317 70.1627 11.5205 70.1001 11.4289C70.0375 11.3372 69.9499 11.2631 69.8391 11.2066C69.7153 11.1462 69.5826 11.1063 69.4462 11.0886C69.2855 11.0656 69.1233 11.0545 68.9609 11.0555H68.4852V10.411ZM73.8739 8.50097V10.1273C73.8739 10.4997 73.8682 10.8341 73.8547 11.1296C73.8412 11.426 73.8267 11.738 73.8075 12.0656L73.8267 12.0841L74.1763 11.3792C74.2928 11.1491 74.4093 10.9141 74.5278 10.6742L75.6487 8.49902H76.9554V13.0952H76.0021V11.4689C76.0021 11.1286 76.0117 10.7883 76.0262 10.448C76.0416 10.1068 76.0579 9.7636 76.0772 9.4165H76.03C75.9386 9.66868 75.8325 9.91514 75.7122 10.1546C75.6073 10.3622 75.5013 10.5767 75.3964 10.7981C75.2028 11.1764 75.0112 11.5547 74.8205 11.933C74.6308 12.3113 74.4296 12.6993 74.2187 13.0961H72.9119V8.50097H73.8739ZM82.2806 8.50097V9.3424H80.8988V13.0971H79.9069V9.3424H78.5337V8.50097H82.2806ZM87.4267 10.5816C87.4267 10.6694 87.4228 10.7532 87.417 10.8322C87.4121 10.9036 87.4028 10.9746 87.3891 11.0447H84.3625C84.376 11.4796 84.5108 11.816 84.7689 12.0519C85.027 12.2879 85.3688 12.4068 85.7916 12.4068C86.2336 12.4068 86.6419 12.3347 87.0155 12.1894L87.1734 12.8992C86.743 13.0883 86.2365 13.1829 85.65 13.1829C85.2966 13.1829 84.9788 13.1273 84.6986 13.0172C84.431 12.9153 84.1884 12.7556 83.9879 12.5492C83.7914 12.3404 83.6402 12.0923 83.544 11.8208C83.4429 11.5371 83.3919 11.2193 83.3919 10.8663C83.3919 10.5134 83.4429 10.1867 83.544 9.88742C83.647 9.5881 83.7924 9.32777 83.9783 9.10742C84.1661 8.8861 84.3924 8.71352 84.6553 8.58677C84.9201 8.461 85.2157 8.39762 85.5393 8.39762C85.8075 8.39399 86.0735 8.44713 86.3202 8.55362C86.5533 8.65697 86.7526 8.80517 86.9163 8.99822C87.0819 9.1903 87.2081 9.42137 87.2947 9.68852C87.3833 9.95567 87.4267 10.254 87.4267 10.5816ZM86.4637 10.3174C86.4637 9.95762 86.379 9.6661 86.2076 9.44282C86.0362 9.21955 85.7887 9.10645 85.4651 9.10645C85.1714 9.10645 84.9239 9.21955 84.7188 9.44672C84.5137 9.6739 84.3953 9.96347 84.3635 10.3174H86.4637ZM91.4913 8.539C91.6724 8.5078 91.9016 8.48245 92.1818 8.46295C92.462 8.44345 92.748 8.43467 93.0417 8.43467C93.2276 8.43467 93.4385 8.44637 93.6715 8.46782C93.9045 8.48927 94.1289 8.53997 94.3388 8.61895C94.5516 8.69792 94.7279 8.8159 94.8713 8.97385C95.0148 9.1318 95.088 9.34532 95.088 9.61637C95.0897 9.74009 95.0661 9.86281 95.0185 9.97678C94.9709 10.0907 94.9005 10.1935 94.8116 10.2784C94.7263 10.3612 94.6284 10.4296 94.5218 10.4812C94.413 10.5348 94.3003 10.5748 94.1809 10.5992L94.1905 10.6274C94.5199 10.684 94.7885 10.8039 94.9936 10.9872C95.1988 11.1705 95.3018 11.4221 95.3018 11.7438C95.3018 12.0656 95.2132 12.321 95.0408 12.5102C94.8656 12.6993 94.6518 12.8417 94.3956 12.9362C94.135 13.0321 93.863 13.0927 93.5867 13.1166C93.3341 13.14 93.0806 13.1527 92.827 13.1546C92.5766 13.1546 92.332 13.1488 92.0932 13.1351C91.8525 13.1225 91.6531 13.1098 91.4913 13.0971V8.539ZM92.462 10.3739H92.9753C93.1313 10.3739 93.2796 10.3632 93.4192 10.3408C93.5598 10.3193 93.6821 10.2842 93.788 10.2374C93.8853 10.1967 93.9707 10.1316 94.0365 10.0483C94.0969 9.96477 94.1281 9.8632 94.125 9.7597C94.13 9.6663 94.1083 9.57343 94.0625 9.49218C94.0168 9.41092 93.9489 9.34471 93.867 9.30145C93.6956 9.20395 93.4269 9.1552 93.06 9.1552C92.955 9.1552 92.8626 9.15812 92.7836 9.16495L92.462 9.19322V10.3739ZM92.462 12.4068C92.5862 12.4195 92.6912 12.4283 92.774 12.4351C93.0125 12.4519 93.2521 12.4456 93.4895 12.4166C93.625 12.4001 93.7573 12.3637 93.8824 12.3083C93.9934 12.2613 94.0911 12.1869 94.1665 12.0919C94.2426 11.9875 94.2811 11.8598 94.2753 11.7302C94.2753 11.4669 94.1587 11.2856 93.9296 11.1851C93.6984 11.0847 93.3884 11.035 92.9945 11.035H92.462V12.4068Z" fill="white"/>
</svg>
