<svg viewBox="0 0 130 39" fill="none" xmlns="http://www.w3.org/2000/svg">
<path d="M124.997 38.4605H4.80756C2.11533 38.4605 0 36.249 0 33.6529V4.80756C0 2.11533 2.21148 0 4.80756 0H124.997C127.689 0 129.804 2.21148 129.804 4.80756V33.6529C129.804 36.249 127.689 38.4605 124.997 38.4605Z" fill="black"/>
<path d="M124.997 0.76921C127.208 0.76921 129.035 2.59608 129.035 4.80756V33.6529C129.035 35.8644 127.208 37.6913 124.997 37.6913H4.80756C2.59608 37.6913 0.76921 35.8644 0.76921 33.6529V4.80756C0.76921 2.59608 2.59608 0.76921 4.80756 0.76921H124.997ZM124.997 0H4.80756C2.11533 0 0 2.21148 0 4.80756V33.6529C0 36.3452 2.21148 38.4605 4.80756 38.4605H124.997C127.689 38.4605 129.804 36.249 129.804 33.6529V4.80756C129.804 2.21148 127.689 0 124.997 0Z" fill="#A6A6A6"/>
<path d="M65.4787 20.9608C63.171 20.9608 61.3442 22.6915 61.3442 25.0953C61.3442 27.4029 63.171 29.2298 65.4787 29.2298C67.7863 29.2298 69.6132 27.499 69.6132 25.0953C69.6132 22.5953 67.7863 20.9608 65.4787 20.9608ZM65.4787 27.499C64.2287 27.499 63.171 26.4414 63.171 24.9991C63.171 23.5568 64.2287 22.4992 65.4787 22.4992C66.7286 22.4992 67.7863 23.4607 67.7863 24.9991C67.7863 26.4414 66.7286 27.499 65.4787 27.499ZM56.5366 20.9608C54.229 20.9608 52.4021 22.6915 52.4021 25.0953C52.4021 27.4029 54.229 29.2298 56.5366 29.2298C58.8442 29.2298 60.6711 27.499 60.6711 25.0953C60.6711 22.5953 58.8442 20.9608 56.5366 20.9608ZM56.5366 27.499C55.2866 27.499 54.229 26.4414 54.229 24.9991C54.229 23.5568 55.2866 22.4992 56.5366 22.4992C57.7866 22.4992 58.8442 23.4607 58.8442 24.9991C58.8442 26.4414 57.7866 27.499 56.5366 27.499ZM45.8638 22.2107V23.9415H49.9983C49.9022 24.903 49.5176 25.6722 49.0368 26.1529C48.4599 26.7298 47.4984 27.4029 45.8638 27.4029C43.2677 27.4029 41.3447 25.3837 41.3447 22.7876C41.3447 20.1916 43.3639 18.1724 45.8638 18.1724C47.2099 18.1724 48.2676 18.7493 49.0368 19.4223L50.2868 18.1724C49.2291 17.2109 47.883 16.4417 45.96 16.4417C42.4985 16.4417 39.5178 19.3262 39.5178 22.7876C39.5178 26.2491 42.4985 29.1336 45.96 29.1336C47.883 29.1336 49.2291 28.5567 50.3829 27.3067C51.5367 26.1529 51.9213 24.5184 51.9213 23.2684C51.9213 22.8838 51.9213 22.4992 51.8252 22.2107H45.8638ZM89.5165 23.5568C89.1319 22.5953 88.1704 20.9608 86.055 20.9608C83.9397 20.9608 82.209 22.5953 82.209 25.0953C82.209 27.4029 83.9397 29.2298 86.2473 29.2298C88.0742 29.2298 89.228 28.076 89.6126 27.4029L88.2665 26.4414C87.7858 27.1144 87.2089 27.5952 86.2473 27.5952C85.2858 27.5952 84.7089 27.2106 84.2282 26.3452L89.7088 24.0376L89.5165 23.5568ZM83.9397 24.903C83.9397 23.3645 85.1897 22.4992 86.055 22.4992C86.7281 22.4992 87.4012 22.8838 87.5935 23.3645L83.9397 24.903ZM79.4206 28.8452H81.2475V16.8263H79.4206V28.8452ZM76.5361 21.8261C76.0553 21.3454 75.2861 20.8646 74.3246 20.8646C72.3054 20.8646 70.3824 22.6915 70.3824 24.9991C70.3824 27.3067 72.2093 29.0375 74.3246 29.0375C75.2861 29.0375 76.0553 28.5567 76.4399 28.076H76.5361V28.6529C76.5361 30.1913 75.6707 31.0566 74.3246 31.0566C73.2669 31.0566 72.4977 30.2874 72.3054 29.6144L70.767 30.2874C71.2477 31.3451 72.4016 32.6912 74.4207 32.6912C76.5361 32.6912 78.2668 31.4412 78.2668 28.4606V21.1531H76.5361V21.8261ZM74.4207 27.499C73.1708 27.499 72.1131 26.4414 72.1131 24.9991C72.1131 23.5568 73.1708 22.4992 74.4207 22.4992C75.6707 22.4992 76.6322 23.5568 76.6322 24.9991C76.6322 26.4414 75.6707 27.499 74.4207 27.499ZM97.8816 16.8263H93.5548V28.8452H95.3817V24.3261H97.8816C99.9008 24.3261 101.824 22.8838 101.824 20.5762C101.824 18.2685 99.9008 16.8263 97.8816 16.8263ZM97.9778 22.5953H95.3817V18.4608H97.9778C99.3239 18.4608 100.093 19.6146 100.093 20.48C99.997 21.5377 99.2278 22.5953 97.9778 22.5953ZM109.035 20.8646C107.689 20.8646 106.343 21.4415 105.862 22.6915L107.497 23.3645C107.881 22.6915 108.458 22.4992 109.131 22.4992C110.093 22.4992 110.958 23.0761 111.054 24.0376V24.1338C110.766 23.9414 109.997 23.653 109.227 23.653C107.497 23.653 105.766 24.6145 105.766 26.3452C105.766 27.9798 107.208 29.0375 108.747 29.0375C109.997 29.0375 110.574 28.4606 111.054 27.8837H111.151V28.8452H112.881V24.2299C112.689 22.1146 111.054 20.8646 109.035 20.8646ZM108.843 27.499C108.266 27.499 107.401 27.2106 107.401 26.4414C107.401 25.4799 108.458 25.1914 109.324 25.1914C110.093 25.1914 110.477 25.3837 110.958 25.576C110.766 26.7298 109.804 27.499 108.843 27.499ZM118.939 21.1531L116.92 26.3452H116.823L114.708 21.1531H112.785L115.958 28.4606L114.131 32.4989H115.958L120.862 21.1531H118.939ZM102.785 28.8452H104.612V16.8263H102.785V28.8452Z" fill="white"/>
<path d="M9.99956 7.21143C9.7111 7.49988 9.5188 7.98064 9.5188 8.55754V29.807C9.5188 30.3839 9.7111 30.8646 9.99956 31.1531L10.0957 31.2492L22.0185 19.3265V19.2303V19.1342L9.99956 7.21143Z" fill="url(#paint0_linear_1_18985)"/>
<path d="M25.961 23.3648L22.0188 19.4226V19.2302V19.1341L25.961 15.1919L26.0571 15.288L30.7686 17.9803C32.1147 18.7495 32.1147 19.9995 30.7686 20.7687L25.961 23.3648Z" fill="url(#paint1_linear_1_18985)"/>
<path d="M26.057 23.2691L22.0187 19.2307L9.99976 31.2496C10.4805 31.7304 11.1536 31.7304 12.0189 31.3458L26.057 23.2691Z" fill="url(#paint2_linear_1_18985)"/>
<path d="M26.057 15.1924L12.0189 7.21183C11.1536 6.73107 10.4805 6.82722 9.99976 7.30798L22.0187 19.2307L26.057 15.1924Z" fill="url(#paint3_linear_1_18985)"/>
<path opacity="0.2" d="M25.9604 23.1731L12.0184 31.0575C11.2492 31.5383 10.5762 31.4421 10.0954 31.0575L9.99927 31.1537L10.0954 31.2498C10.5762 31.6344 11.2492 31.7306 12.0184 31.2498L25.9604 23.1731Z" fill="black"/>
<path opacity="0.12" d="M9.99911 31.0573C9.71065 30.7688 9.6145 30.2881 9.6145 29.7112V29.8073C9.6145 30.3842 9.8068 30.865 10.0953 31.1535V31.0573H9.99911Z" fill="black"/>
<path opacity="0.12" d="M30.7678 20.4807L25.9602 23.1729L26.0564 23.2691L30.7678 20.5768C31.4408 20.1922 31.7293 19.7115 31.7293 19.2307C31.7293 19.7115 31.3447 20.0961 30.7678 20.4807Z" fill="black"/>
<path opacity="0.25" d="M12.0178 7.3076L30.7673 17.9804C31.3442 18.365 31.7288 18.7496 31.7288 19.2304C31.7288 18.7496 31.4404 18.2688 30.7673 17.8842L12.0178 7.21145C10.6717 6.44224 9.61401 7.1153 9.61401 8.65372V8.74987C9.61401 7.21145 10.6717 6.53839 12.0178 7.3076Z" fill="white"/>
<path d="M40.4802 13.7498H39.8071V11.8267H40.384C40.8648 11.4421 41.1532 10.6729 41.1532 9.61525V6.73071H44.9993V11.8267H45.6724V13.7498H44.9993V12.4998H40.5763V13.7498H40.4802ZM41.8263 9.61525C41.8263 10.4806 41.634 11.2498 41.2494 11.8267H44.1339V7.49992H41.7302V9.61525H41.8263Z" fill="white" stroke="white" stroke-width="0.2" stroke-miterlimit="10"/>
<path d="M51.3453 11.7305C50.7684 12.3074 50.0953 12.5959 49.23 12.5959C48.3646 12.5959 47.6915 12.3074 47.1146 11.7305C46.5377 11.1536 46.2493 10.4806 46.2493 9.61521C46.2493 8.74985 46.5377 8.07679 47.1146 7.49988C47.6915 6.92297 48.3646 6.63452 49.23 6.63452C50.0953 6.63452 50.7684 6.92297 51.3453 7.49988C51.9222 8.07679 52.2107 8.74985 52.2107 9.61521C52.2107 10.4806 51.9222 11.1536 51.3453 11.7305ZM47.6915 11.2498C48.0761 11.6344 48.6531 11.9228 49.23 11.9228C49.8069 11.9228 50.3838 11.7305 50.7684 11.2498C51.153 10.8652 51.4414 10.2883 51.4414 9.61521C51.4414 8.94215 51.2491 8.36524 50.7684 7.98064C50.3838 7.59603 49.8069 7.30758 49.23 7.30758C48.6531 7.30758 48.0761 7.49988 47.6915 7.98064C47.3069 8.36524 47.0185 8.94215 47.0185 9.61521C47.0185 10.2883 47.2108 10.8652 47.6915 11.2498Z" fill="white" stroke="white" stroke-width="0.2" stroke-miterlimit="10"/>
<path d="M55.9607 12.5959C55.0953 12.5959 54.4223 12.3074 53.8453 11.7305C53.2684 11.1536 52.98 10.4806 52.98 9.61521C52.98 8.74985 53.2684 8.07679 53.8453 7.49988C54.4223 6.92297 55.0953 6.63452 55.9607 6.63452C56.826 6.63452 57.4991 6.92298 58.076 7.59603L57.5952 8.07679C57.2106 7.59603 56.6337 7.30758 55.9607 7.30758C55.2876 7.30758 54.8069 7.49988 54.3261 7.98064C53.8453 8.36524 53.653 8.94215 53.653 9.61521C53.653 10.2883 53.8453 10.8652 54.3261 11.2498C54.7107 11.6344 55.2876 11.9228 55.9607 11.9228C56.6337 11.9228 57.2106 11.6344 57.6914 11.0575L58.1722 11.5382C57.8837 11.8267 57.5952 12.1151 57.2106 12.3074C56.826 12.4997 56.4414 12.5959 55.9607 12.5959Z" fill="white" stroke="white" stroke-width="0.2" stroke-miterlimit="10"/>
<path d="M61.2488 12.4998H60.4795V7.40377H58.845V6.73071H62.7872V7.40377H61.1526V12.4998H61.2488Z" fill="white" stroke="white" stroke-width="0.2" stroke-miterlimit="10"/>
<path d="M67.8831 6.73071L65.6716 11.6344C65.3832 12.3075 64.9024 12.6921 64.3255 12.6921C64.1332 12.6921 63.9409 12.6921 63.7486 12.5959L63.9409 11.9229C64.037 12.019 64.2293 12.019 64.3255 12.019C64.5178 12.019 64.6139 12.019 64.7101 11.9229C64.8062 11.8267 64.9024 11.7306 64.9985 11.5383L65.1908 11.0575L63.2678 6.82686H64.1332L65.5754 10.096L66.9216 6.82686H67.8831V6.73071Z" fill="white" stroke="white" stroke-width="0.2" stroke-miterlimit="10"/>
<path d="M68.7485 12.4998V6.73071H72.883V12.4998H72.1138V7.40377H69.4216V12.4998H68.7485Z" fill="white" stroke="white" stroke-width="0.2" stroke-miterlimit="10"/>
<path d="M74.2292 12.4998V6.73071H74.9985V9.23065H77.883V6.73071H78.6522V12.4998H77.883V9.9037H74.9985V12.4998H74.2292Z" fill="white" stroke="white" stroke-width="0.2" stroke-miterlimit="10"/>
<path d="M84.7103 11.7305C84.1334 12.3074 83.4603 12.5959 82.5949 12.5959C81.7296 12.5959 81.0565 12.3074 80.4796 11.7305C79.9027 11.1536 79.6143 10.4806 79.6143 9.61521C79.6143 8.74985 79.9027 8.07679 80.4796 7.49988C81.0565 6.92297 81.7296 6.63452 82.5949 6.63452C83.4603 6.63452 84.1334 6.92297 84.7103 7.49988C85.2872 8.07679 85.5756 8.74985 85.5756 9.61521C85.4795 10.4806 85.191 11.1536 84.7103 11.7305ZM80.9604 11.2498C81.345 11.6344 81.9219 11.9228 82.4988 11.9228C83.0757 11.9228 83.6526 11.7305 84.0372 11.2498C84.4218 10.8652 84.7103 10.2883 84.7103 9.61521C84.7103 8.94215 84.518 8.36524 84.0372 7.98064C83.6526 7.59603 83.0757 7.30758 82.4988 7.30758C81.9219 7.30758 81.345 7.49988 80.9604 7.98064C80.5758 8.36524 80.2873 8.94215 80.2873 9.61521C80.2873 10.2883 80.5758 10.8652 80.9604 11.2498Z" fill="white" stroke="white" stroke-width="0.2" stroke-miterlimit="10"/>
<path d="M88.5559 12.4998V6.73071H90.6712C91.152 6.73071 91.5366 6.92302 91.8251 7.21147C92.1135 7.49992 92.3058 7.88453 92.3058 8.36529C92.3058 8.65374 92.2097 8.84604 92.1135 9.13449C92.0174 9.3268 91.825 9.5191 91.5366 9.61525C91.825 9.7114 92.0174 9.9037 92.2097 10.096C92.402 10.2883 92.4981 10.5768 92.4981 10.9614C92.4981 11.4421 92.3058 11.8267 92.0174 12.1152C91.6327 12.4036 91.2481 12.5959 90.7674 12.5959H88.5559V12.4998ZM89.3251 9.23065H90.6712C90.9597 9.23065 91.152 9.13449 91.3443 8.94219C91.5366 8.74989 91.6328 8.55759 91.6328 8.36529C91.6328 8.17298 91.5366 7.98068 91.3443 7.78838C91.152 7.59607 90.9597 7.49992 90.6712 7.49992H89.3251V9.23065ZM89.3251 11.8267H90.8635C91.152 11.8267 91.3443 11.7306 91.5366 11.5383C91.7289 11.346 91.8251 11.1537 91.8251 10.8652C91.8251 10.6729 91.7289 10.3845 91.5366 10.1922C91.3443 9.99986 91.152 9.9037 90.8635 9.9037H89.4213V11.8267H89.3251Z" fill="white" stroke="white" stroke-width="0.2" stroke-miterlimit="10"/>
<defs>
<linearGradient id="paint0_linear_1_18985" x1="20.9605" y1="8.37457" x2="4.82402" y2="24.5111" gradientUnits="userSpaceOnUse">
<stop stop-color="#00A0FF"/>
<stop offset="0.00657445" stop-color="#00A1FF"/>
<stop offset="0.2601" stop-color="#00BEFF"/>
<stop offset="0.5122" stop-color="#00D2FF"/>
<stop offset="0.7604" stop-color="#00DFFF"/>
<stop offset="1" stop-color="#00E3FF"/>
</linearGradient>
<linearGradient id="paint1_linear_1_18985" x1="32.5324" y1="19.2316" x2="9.26674" y2="19.2316" gradientUnits="userSpaceOnUse">
<stop stop-color="#FFE000"/>
<stop offset="0.4087" stop-color="#FFBD00"/>
<stop offset="0.7754" stop-color="#FFA500"/>
<stop offset="1" stop-color="#FF9C00"/>
</linearGradient>
<linearGradient id="paint2_linear_1_18985" x1="23.8715" y1="21.4384" x2="1.98911" y2="43.3208" gradientUnits="userSpaceOnUse">
<stop stop-color="#FF3A44"/>
<stop offset="1" stop-color="#C31162"/>
</linearGradient>
<linearGradient id="paint3_linear_1_18985" x1="7.01647" y1="0.169898" x2="16.7879" y2="9.94127" gradientUnits="userSpaceOnUse">
<stop stop-color="#32A071"/>
<stop offset="0.0685" stop-color="#2DA771"/>
<stop offset="0.4762" stop-color="#15CF74"/>
<stop offset="0.8009" stop-color="#06E775"/>
<stop offset="1" stop-color="#00F076"/>
</linearGradient>
</defs>
</svg>
