<svg viewBox="0 0 46 25" fill="none" xmlns="http://www.w3.org/2000/svg">
<mask id="path-1-inside-1_796_3784" fill="none">
<path d="M9.1216 16.5001C9.26102 15.8977 9.47708 15.691 10 15.6373H16L16 17.207H44.4139C44.8519 17.207 45.207 17.5621 45.207 18.0001V20.3959C45.207 20.8339 44.8519 21.189 44.4139 21.189H9.1216V16.5001Z"/>
</mask>
<path d="M9.1216 16.5001C9.26102 15.8977 9.47708 15.691 10 15.6373H16L16 17.207H44.4139C44.8519 17.207 45.207 17.5621 45.207 18.0001V20.3959C45.207 20.8339 44.8519 21.189 44.4139 21.189H9.1216V16.5001Z" fill="none"/>
<path d="M9.1216 16.5001H8.1216C8.1216 16.4242 8.13024 16.3486 8.14735 16.2746L9.1216 16.5001ZM16 15.6373V14.6373H17L17 15.6373L16 15.6373ZM16 17.207V18.207C15.7348 18.207 15.4804 18.1016 15.2929 17.9141C15.1054 17.7266 15 17.4722 15 17.207L16 17.207ZM9.1216 21.189V22.189H8.1216V21.189H9.1216ZM10 15.6373L9.89784 14.6426L9.94879 14.6373H10V15.6373ZM17 15.6373L17 17.207L15 17.207L15 15.6373L17 15.6373ZM16 16.207H44.4139V18.207H16V16.207ZM44.4139 16.207C45.4042 16.207 46.207 17.0099 46.207 18.0001H44.207C44.207 18.1144 44.2996 18.207 44.4139 18.207V16.207ZM46.207 18.0001V20.3959H44.207V18.0001H46.207ZM46.207 20.3959C46.207 21.3861 45.4042 22.189 44.4139 22.189V20.189C44.2996 20.189 44.207 20.2816 44.207 20.3959H46.207ZM44.4139 22.189H9.1216V20.189H44.4139V22.189ZM8.1216 21.189V16.5001H10.1216V21.189H8.1216ZM8.14735 16.2746C8.23055 15.9152 8.37396 15.484 8.71809 15.1477C9.08493 14.7893 9.53007 14.6803 9.89784 14.6426L10.1022 16.6321C10.025 16.64 10.005 16.6494 10.0159 16.6453C10.023 16.6426 10.0382 16.6361 10.0578 16.6238C10.0779 16.6113 10.0978 16.5958 10.1159 16.5782C10.1533 16.5416 10.1618 16.5165 10.1534 16.5349C10.1488 16.5449 10.1408 16.5644 10.1304 16.5968C10.1201 16.6292 10.1084 16.6713 10.0958 16.7256L8.14735 16.2746ZM10 14.6373H16V16.6373H10V14.6373Z" fill="#FF8A00" mask="url(#path-1-inside-1_796_3784)"/>
<path d="M18.7181 3.99989H45.282C45.6785 3.99989 46 4.28486 46 4.63628V17.3635C46 17.7149 45.6785 17.9999 45.282 17.9999H18.718C18.3215 17.9999 18 17.7149 18 17.3635V4.63621C18.0001 4.28471 18.3216 3.99989 18.7181 3.99989Z" fill="none"/>
<path d="M45.2069 1.06885H15.8628C15.7009 1.06885 15.5697 1.20001 15.5696 1.36188C15.5696 1.36191 15.5696 1.36195 15.5696 1.36198V17.2237C15.5696 17.3855 15.7009 17.5168 15.8627 17.5168H45.2069C45.3687 17.5168 45.5 17.3855 45.5 17.2237V1.36197C45.5 1.20013 45.3687 1.06885 45.2069 1.06885Z" stroke="#FF8A00"/>
<path d="M7.5 7.00011L12.4998 7.00015C12.9378 7.00015 13.293 7.35529 13.293 7.79327V15C13.293 15.438 12.9378 15.7931 12.4998 15.7931L10 15.793L9 20H2.99954V16.024C2.99954 15.0506 3.17878 14.0855 3.52817 13.177L6.0195 8.01693C6.25515 7.40421 6.84371 7.00011 7.5 7.00011Z" fill="none"/>
<mask id="path-6-inside-2_796_3784" fill="white">
<path d="M5.85032 4.7068L12.4998 4.70689C12.9378 4.70689 13.293 5.06204 13.293 5.50002V15.6376C13.293 16.0755 12.9378 16.4307 12.4998 16.4307L10.0003 16.4306V20.396H0.795469V14.7308C0.795469 13.7574 0.974704 12.7923 1.3241 11.8838L4.36982 5.72363C4.60547 5.11091 5.19403 4.7068 5.85032 4.7068Z"/>
</mask>
<path d="M5.85032 4.7068V3.7068H5.85033L5.85032 4.7068ZM12.4998 4.70689V5.70689L12.4998 5.70689L12.4998 4.70689ZM12.4998 16.4307V17.4307H12.4998L12.4998 16.4307ZM10.0003 16.4306H9.00029C9.00029 16.1654 9.10565 15.911 9.2932 15.7235C9.48074 15.5359 9.7351 15.4306 10.0003 15.4306L10.0003 16.4306ZM10.0003 20.396H11.0003V21.396H10.0003V20.396ZM0.795469 20.396V21.396H-0.204531V20.396H0.795469ZM1.3241 11.8838L0.390745 11.5248L0.407272 11.4819L0.427679 11.4406L1.3241 11.8838ZM4.36982 5.72363L5.30317 6.0826L5.28664 6.12557L5.26624 6.16684L4.36982 5.72363ZM5.85033 3.7068L12.4999 3.70689L12.4998 5.70689L5.85031 5.7068L5.85033 3.7068ZM12.4998 3.70689C13.4901 3.70689 14.293 4.50975 14.293 5.50002H12.293C12.293 5.61432 12.3855 5.70689 12.4998 5.70689V3.70689ZM14.293 5.50002V15.6376H12.293V5.50002H14.293ZM14.293 15.6376C14.293 16.6278 13.4901 17.4307 12.4998 17.4307V15.4307C12.3855 15.4307 12.293 15.5233 12.293 15.6376H14.293ZM12.4998 17.4307L10.0003 17.4306L10.0003 15.4306L12.4999 15.4307L12.4998 17.4307ZM11.0003 16.4306V20.396H9.00029V16.4306H11.0003ZM10.0003 21.396H0.795469V19.396H10.0003V21.396ZM-0.204531 20.396V14.7308H1.79547V20.396H-0.204531ZM-0.204531 14.7308C-0.204531 13.6346 -0.00269318 12.5478 0.390745 11.5248L2.25745 12.2428C1.9521 13.0367 1.79547 13.8801 1.79547 14.7308H-0.204531ZM0.427679 11.4406L3.4734 5.28042L5.26624 6.16684L2.22052 12.327L0.427679 11.4406ZM3.43647 5.36466C3.82068 4.36569 4.78031 3.7068 5.85032 3.7068V5.7068C5.60775 5.7068 5.39027 5.85613 5.30317 6.0826L3.43647 5.36466Z" fill="#FF8A00" mask="url(#path-6-inside-2_796_3784)"/>
<path d="M8.62109 19.8959V16.9305H1.29367V19.8959H8.62109Z" stroke="#FF8A00"/>
<path d="M36.1245 20.7924C36.1245 22.5238 37.5281 23.9274 39.2595 23.9274C40.9909 23.9274 42.3945 22.5238 42.3945 20.7924C42.3945 19.061 40.9909 17.6574 39.2595 17.6574C37.5281 17.6574 36.1245 19.061 36.1245 20.7924Z" fill="none" stroke="#FF8A00"/>
<path d="M38.1714 20.7927C38.1714 21.3925 38.6577 21.8788 39.2576 21.8788C39.8575 21.8788 40.3438 21.3925 40.3438 20.7927C40.3438 20.1928 39.8575 19.7065 39.2576 19.7065C38.6577 19.7065 38.1714 20.1928 38.1714 20.7927Z" stroke="#FF8A00"/>
<path d="M27.398 20.7924C27.398 22.5238 28.8016 23.9274 30.533 23.9274C32.2644 23.9274 33.668 22.5238 33.668 20.7924C33.668 19.061 32.2644 17.6574 30.533 17.6574C28.8016 17.6574 27.398 19.061 27.398 20.7924Z" fill="none" stroke="#FF8A00"/>
<path d="M29.4488 20.7927C29.4488 21.3925 29.9351 21.8788 30.5349 21.8788C31.1348 21.8788 31.6211 21.3925 31.6211 20.7927C31.6211 20.1928 31.1348 19.7065 30.5349 19.7065C29.9351 19.7065 29.4488 20.1928 29.4488 20.7927Z" stroke="#FF8A00"/>
<path d="M5.98783 20.7924C5.98783 22.5238 7.39141 23.9274 9.12282 23.9274C10.8542 23.9274 12.2578 22.5238 12.2578 20.7924C12.2578 19.061 10.8542 17.6574 9.12282 17.6574C7.39141 17.6574 5.98783 19.061 5.98783 20.7924Z" fill="none" stroke="#FF8A00"/>
<path d="M8.03472 20.7927C8.03472 21.3925 8.52101 21.8788 9.12088 21.8788C9.72074 21.8788 10.207 21.3925 10.207 20.7927C10.207 20.1928 9.72074 19.7065 9.12088 19.7065C8.52101 19.7065 8.03472 20.1928 8.03472 20.7927Z" stroke="#FF8A00"/>
<path d="M0.792688 20.6887H1.5858C1.74771 20.6887 1.87891 20.5575 1.87891 20.3956V18.8094C1.87891 18.6476 1.74762 18.5163 1.5858 18.5163H0.792688C0.63087 18.5163 0.499582 18.6476 0.499582 18.8094V20.3956C0.499582 20.5574 0.63087 20.6887 0.792688 20.6887Z" stroke="#FF8A00"/>
<path d="M1.83579 14.5852H1.54267V15.9645H1.83579C1.99762 15.9645 2.12891 15.8332 2.12891 15.6713V14.8782C2.12891 14.7164 1.99775 14.5852 1.83579 14.5852Z" stroke="#FF8A00"/>
<path d="M3.81534 8.19631L3.80655 8.21916L3.79556 8.24105L1.92628 11.965C1.91776 12.0088 1.95125 12.0517 1.99805 12.0517H8.64828C8.81012 12.0517 8.94141 11.9204 8.94141 11.7586V7.79312C8.94141 7.63129 8.81012 7.5 8.64828 7.5H4.82929C4.37993 7.5 3.9768 7.77674 3.81534 8.19631Z" stroke="#FF8A00"/>
<path d="M23 19.5H16C15.8295 19.5 15.6916 19.5557 15.6053 19.6248C15.5199 19.6931 15.5 19.7583 15.5 19.8V22.2C15.5 22.2417 15.5199 22.3069 15.6053 22.3752C15.6916 22.4443 15.8295 22.5 16 22.5H23C23.1705 22.5 23.3084 22.4443 23.3947 22.3752C23.4801 22.3069 23.5 22.2417 23.5 22.2L23.5 19.8001C23.5 19.8001 23.5 19.8001 23.5 19.8001C23.5 19.8001 23.5 19.8 23.5 19.8C23.4999 19.7581 23.48 19.693 23.3947 19.6247C23.3084 19.5557 23.1705 19.5 23 19.5Z" fill="none" stroke="#FF8A00"/>
</svg>
