<svg viewBox="0 0 34 34" fill="none" xmlns="http://www.w3.org/2000/svg">
<path fill-rule="evenodd" clip-rule="evenodd" d="M17 27C22.5228 27 27 22.5228 27 17C27 11.4772 22.5228 7 17 7C11.4772 7 7 11.4772 7 17C7 22.5228 11.4772 27 17 27ZM17 31C24.732 31 31 24.732 31 17C31 9.26801 24.732 3 17 3C9.26801 3 3 9.26801 3 17C3 24.732 9.26801 31 17 31Z" fill="#FF8A00"/>
<path fill-rule="evenodd" clip-rule="evenodd" d="M10 19L3.49691e-07 19L0 15L10 15L10 19Z" fill="#FF8A00"/>
<path fill-rule="evenodd" clip-rule="evenodd" d="M19 24L19 34L15 34L15 24L19 24Z" fill="#FF8A00"/>
<path fill-rule="evenodd" clip-rule="evenodd" d="M34 19L24 19L24 15L34 15L34 19Z" fill="#FF8A00"/>
<path fill-rule="evenodd" clip-rule="evenodd" d="M19 1.74846e-07L19 10L15 10L15 0L19 1.74846e-07Z" fill="#FF8A00"/>
</svg>
