<svg width="162" height="22" viewBox="0 0 162 22" fill="none" xmlns="http://www.w3.org/2000/svg">
<path fill-rule="evenodd" clip-rule="evenodd" d="M90.4678 16.2597H105.342V21.5565H85.8914C81.2909 21.1834 81.5591 16.5085 81.5824 16.1945L96.3317 5.29688H81.4941V0H100.57C105.968 0 105.317 5.29688 105.317 5.29688L105.339 5.29888L90.4678 16.2597V16.2597Z" fill="#5E5E5E"/>
<path fill-rule="evenodd" clip-rule="evenodd" d="M26.5295 12.9467V0H31.824V11.6928C31.824 14.9606 35.6903 16.4246 38.4018 16.4246C41.1255 16.4246 45.0214 14.9867 45.0214 11.6928V0H50.3159V12.9467C50.3159 18.8936 43.4246 21.8432 38.4018 21.8432C33.3908 21.8432 26.5295 18.8673 26.5295 12.9467V12.9467Z" fill="#5E5E5E"/>
<path fill-rule="evenodd" clip-rule="evenodd" d="M54 12.9467V0H59.2944V11.6928C59.2944 14.9606 63.1608 16.4246 65.8722 16.4246C68.596 16.4246 72.4919 14.9867 72.4919 11.6928V0H77.7863V12.9467C77.7863 18.8936 70.895 21.8432 65.8722 21.8432C60.8613 21.8432 54 18.8673 54 12.9467V12.9467Z" fill="#5E5E5E"/>
<path fill-rule="evenodd" clip-rule="evenodd" d="M4.70343 0H16.888C22.5412 0 25.866 6.16296 21.7809 10.6788C25.8327 15.3161 23.3214 21.5668 16.5401 21.5668C10.6052 21.5668 5.92518 21.5565 0.0027745 21.5565C0.0027745 15.6522 0.000615955 9.74319 0 3.83506C0.229443 2.26719 1.17155 0 4.70343 0V0ZM5.30676 13.4465H16.5379C17.3133 13.4465 17.9471 14.0802 17.9471 14.853V14.8532C17.9471 15.626 17.3123 16.2597 16.5379 16.2597H5.30676V13.4465V13.4465ZM5.30676 5.29534H16.5379C17.3133 5.29534 17.9471 5.92904 17.9471 6.70183V6.70198C17.9471 7.47477 17.3123 8.10847 16.5379 8.10847H5.30676V5.29534V5.29534Z" fill="#5E5E5E"/>
<path fill-rule="evenodd" clip-rule="evenodd" d="M110.068 16.2597H110.069C110.146 12.987 112.669 10.4079 115.123 9.8597L126.683 6.4719L127.371 6.28208C128.872 5.86786 128.867 5.29534 127.205 5.29534H123.43V5.29688H110.051V4.20993C110.185 2.65989 110.972 0 114.798 0H119.432H123.43H128.3C131.486 0 134.093 2.60179 134.093 5.78179C134.093 7.58159 133.424 10.091 130.489 10.9231L116.513 14.885H116.513C115.875 15.0184 115.393 15.5854 115.392 16.2597H133.855V21.5565H110.068V18.0381L110.068 18.0034C110.067 17.9829 110.067 16.4358 110.067 16.4134L110.068 16.3353V16.2597V16.2597Z" fill="#FF8A00"/>
<path fill-rule="evenodd" clip-rule="evenodd" d="M156.04 5.29703H152.485L144.743 13.0359H156.04V5.29703V5.29703ZM150.475 0.116504V0.000153848H156.04H158.183H161.347V21.5567H156.04V18.3327H142.138C138.155 18.1717 137.594 14.9293 137.537 13.5495V13.0362L137.536 13.0359L150.392 0L150.475 0.116504V0.116504Z" fill="#FF8A00"/>
</svg>
