<svg width="115" height="16" viewBox="0 0 115 16" fill="none" xmlns="http://www.w3.org/2000/svg">
<path fill-rule="evenodd" clip-rule="evenodd" d="M64.6574 11.4938H75.1718V15.2381H61.4224C58.1703 14.9743 58.3599 11.6697 58.3763 11.4477L68.8025 3.74431H58.314V0H71.7986C75.6146 0 75.1541 3.74431 75.1541 3.74431L75.1698 3.74572L64.6574 11.4938V11.4938Z" fill="#919191"/>
<path fill-rule="evenodd" clip-rule="evenodd" d="M19.4602 9.1519V0H23.2028V8.26555C23.2028 10.5755 25.9359 11.6104 27.8526 11.6104C29.7779 11.6104 32.5319 10.594 32.5319 8.26555V0H36.2745V9.1519C36.2745 13.3557 31.4031 15.4407 27.8526 15.4407C24.3104 15.4407 19.4602 13.3371 19.4602 9.1519V9.1519Z" fill="#919191"/>
<path fill-rule="evenodd" clip-rule="evenodd" d="M39 9.1519V0H42.7426V8.26555C42.7426 10.5755 45.4757 11.6104 47.3924 11.6104C49.3177 11.6104 52.0717 10.594 52.0717 8.26555V0H55.8143V9.1519C55.8143 13.3557 50.9429 15.4407 47.3924 15.4407C43.8502 15.4407 39 13.3371 39 9.1519V9.1519Z" fill="#919191"/>
<path fill-rule="evenodd" clip-rule="evenodd" d="M3.32481 0H11.9379C15.9341 0 18.2844 4.35653 15.3967 7.5487C18.2609 10.8268 16.4857 15.2454 11.692 15.2454C7.49671 15.2454 4.18845 15.2381 0.00196127 15.2381C0.00196127 11.0644 0.000435412 6.88736 0 2.71096C0.162191 1.60265 0.828153 0 3.32481 0V0ZM3.7513 9.50522H11.6905C12.2386 9.50522 12.6866 9.95317 12.6866 10.4994V10.4996C12.6866 11.0458 12.2379 11.4938 11.6905 11.4938H3.7513V9.50522V9.50522ZM3.7513 3.74322H11.6905C12.2386 3.74322 12.6866 4.19117 12.6866 4.73745V4.73756C12.6866 5.28384 12.2379 5.73179 11.6905 5.73179H3.7513V3.74322V3.74322Z" fill="#919191"/>
<path fill-rule="evenodd" clip-rule="evenodd" d="M77.8058 11.4938H77.8065C77.8608 9.18036 79.6443 7.35726 81.3793 6.96972L89.5511 4.57492L90.0373 4.44074C91.0982 4.14793 91.0943 3.74322 89.9197 3.74322H87.2515V3.74431H77.7939V2.97596C77.8886 1.88025 78.445 0 81.1494 0H84.4248H87.2515H90.6938C92.9462 0 94.7888 1.83918 94.7888 4.08709C94.7888 5.35935 94.3158 7.13323 92.2409 7.72145L82.3615 10.522H82.3616C81.911 10.6163 81.57 11.0172 81.5693 11.4938H94.6203V15.2381H77.8058V12.7509L77.8055 12.7264C77.8054 12.7119 77.8052 11.6183 77.8052 11.6024L77.8058 11.5472V11.4938V11.4938Z" fill="#919191"/>
<path fill-rule="evenodd" clip-rule="evenodd" d="M110.303 3.74442H107.79L102.317 9.21491H110.303V3.74442V3.74442ZM106.369 0.0823554V0.000108753H110.303H111.818H114.054V15.2382H110.303V12.9592H100.475C97.6599 12.8454 97.2637 10.5533 97.223 9.57801V9.21513L97.2229 9.21491L106.31 0L106.369 0.0823554V0.0823554Z" fill="#919191"/>
</svg>
